HIERARCHY
ROOT mixamorig:Hips
{
	OFFSET 0.000000 104.274902 0.000000
	CHANNELS 6 Xposition Yposition Zposition Xrotation Yrotation Zrotation
	JOINT mixamorig:Spine
	{
		OFFSET 0.000000 10.181549 0.131524
		CHANNELS 6 Xposition Yposition Zposition Xrotation Yrotation Zrotation
		JOINT mixamorig:Spine1
		{
			OFFSET 0.000000 9.893990 -1.470706
			CHANNELS 3 Xrotation Yrotation Zrotation
			JOINT mixamorig:Spine2
			{
				OFFSET 0.000000 9.220787 -1.370637
				CHANNELS 3 Xrotation Yrotation Zrotation
				JOINT mixamorig:Neck
				{
					OFFSET 0.000000 16.740372 -2.049022
					CHANNELS 6 Xposition Yposition Zposition Xrotation Yrotation Zrotation
					JOINT mixamorig:Head
					{
						OFFSET 0.000000 9.617859 1.684976
						CHANNELS 6 Xposition Yposition Zposition Xrotation Yrotation Zrotation
						JOINT mixamorig:HeadTop_End
						{
							OFFSET 0.000000 22.037384 7.501072
							CHANNELS 6 Xposition Yposition Zposition Xrotation Yrotation Zrotation
							End Site
							{
								OFFSET 0.000000 23.106567 -2.828246
							}
						}
					}
				}
				JOINT mixamorig:RightShoulder
				{
					OFFSET -4.570000 11.014877 -2.160840
					CHANNELS 6 Xposition Yposition Zposition Xrotation Yrotation Zrotation
					JOINT mixamorig:RightArm
					{
						OFFSET -10.592867 -0.524796 -2.232105
						CHANNELS 3 Xrotation Yrotation Zrotation
						JOINT mixamorig:RightForeArm
						{
							OFFSET -27.841497 0.000000 -0.000002
							CHANNELS 3 Xrotation Yrotation Zrotation
							JOINT mixamorig:RightHand
							{
								OFFSET -28.328812 0.000000 -0.000001
								CHANNELS 3 Xrotation Yrotation Zrotation
								JOINT mixamorig:RightHandThumb1
								{
									OFFSET -2.464798 -1.573990 2.681911
									CHANNELS 6 Xposition Yposition Zposition Xrotation Yrotation Zrotation
									JOINT mixamorig:RightHandThumb2
									{
										OFFSET -3.244781 -1.873383 1.873376
										CHANNELS 3 Xrotation Yrotation Zrotation
										JOINT mixamorig:RightHandThumb3
										{
											OFFSET -2.646263 -1.527817 1.527818
											CHANNELS 6 Xposition Yposition Zposition Xrotation Yrotation Zrotation
											JOINT mixamorig:RightHandThumb4
											{
												OFFSET -1.994591 -1.151581 1.151575
												CHANNELS 6 Xposition Yposition Zposition Xrotation Yrotation Zrotation
												End Site
												{
													OFFSET -1.860176 -1.142715 1.365483
												}
											}
										}
									}
								}
								JOINT mixamorig:RightHandIndex1
								{
									OFFSET -9.108299 -0.517883 2.259803
									CHANNELS 6 Xposition Yposition Zposition Xrotation Yrotation Zrotation
									JOINT mixamorig:RightHandIndex2
									{
										OFFSET -3.699997 0.000000 0.000000
										CHANNELS 3 Xrotation Yrotation Zrotation
										JOINT mixamorig:RightHandIndex3
										{
											OFFSET -2.850006 0.000000 0.000000
											CHANNELS 3 Xrotation Yrotation Zrotation
											JOINT mixamorig:RightHandIndex4
											{
												OFFSET -2.772194 0.000000 0.000000
												CHANNELS 3 Xrotation Yrotation Zrotation
												End Site
												{
													OFFSET -2.772202 0.000000 -0.000484
												}
											}
										}
									}
								}
								JOINT mixamorig:RightHandMiddle1
								{
									OFFSET -9.532501 0.000000 -0.000000
									CHANNELS 6 Xposition Yposition Zposition Xrotation Yrotation Zrotation
									JOINT mixamorig:RightHandMiddle2
									{
										OFFSET -3.699997 0.000000 0.000000
										CHANNELS 3 Xrotation Yrotation Zrotation
										JOINT mixamorig:RightHandMiddle3
										{
											OFFSET -2.949997 0.000000 0.000000
											CHANNELS 3 Xrotation Yrotation Zrotation
											JOINT mixamorig:RightHandMiddle4
											{
												OFFSET -2.946594 0.000000 0.000000
												CHANNELS 3 Xrotation Yrotation Zrotation
												End Site
												{
													OFFSET -2.946602 0.000000 -0.000982
												}
											}
										}
									}
								}
								JOINT mixamorig:RightHandRing1
								{
									OFFSET -9.103600 -0.043106 -1.865100
									CHANNELS 6 Xposition Yposition Zposition Xrotation Yrotation Zrotation
									JOINT mixamorig:RightHandRing2
									{
										OFFSET -3.379303 0.000000 0.000000
										CHANNELS 3 Xrotation Yrotation Zrotation
										JOINT mixamorig:RightHandRing3
										{
											OFFSET -2.889694 0.000000 0.000000
											CHANNELS 3 Xrotation Yrotation Zrotation
											JOINT mixamorig:RightHandRing4
											{
												OFFSET -2.638802 0.000000 0.000000
												CHANNELS 3 Xrotation Yrotation Zrotation
												End Site
												{
													OFFSET -2.638802 0.000000 0.004218
												}
											}
										}
									}
								}
								JOINT mixamorig:RightHandPinky1
								{
									OFFSET -8.076698 -0.486725 -3.806299
									CHANNELS 6 Xposition Yposition Zposition Xrotation Yrotation Zrotation
									JOINT mixamorig:RightHandPinky2
									{
										OFFSET -3.600006 0.000000 0.000000
										CHANNELS 3 Xrotation Yrotation Zrotation
										JOINT mixamorig:RightHandPinky3
										{
											OFFSET -2.099998 0.000000 0.000000
											CHANNELS 3 Xrotation Yrotation Zrotation
											JOINT mixamorig:RightHandPinky4
											{
												OFFSET -2.115791 0.000000 0.000000
												CHANNELS 3 Xrotation Yrotation Zrotation
												End Site
												{
													OFFSET -2.115799 0.000000 0.000174
												}
											}
										}
									}
								}
							}
						}
					}
				}
				JOINT mixamorig:LeftShoulder
				{
					OFFSET 4.570400 11.014679 -2.160816
					CHANNELS 6 Xposition Yposition Zposition Xrotation Yrotation Zrotation
					JOINT mixamorig:LeftArm
					{
						OFFSET 10.592373 -0.524597 -2.232116
						CHANNELS 3 Xrotation Yrotation Zrotation
						JOINT mixamorig:LeftForeArm
						{
							OFFSET 27.841488 0.000000 0.000001
							CHANNELS 3 Xrotation Yrotation Zrotation
							JOINT mixamorig:LeftHand
							{
								OFFSET 28.328808 0.000000 -0.000000
								CHANNELS 3 Xrotation Yrotation Zrotation
								JOINT mixamorig:LeftHandThumb1
								{
									OFFSET 2.466103 -1.576202 2.681698
									CHANNELS 6 Xposition Yposition Zposition Xrotation Yrotation Zrotation
									JOINT mixamorig:LeftHandThumb2
									{
										OFFSET 3.243317 -1.872528 1.872530
										CHANNELS 3 Xrotation Yrotation Zrotation
										JOINT mixamorig:LeftHandThumb3
										{
											OFFSET 2.647881 -1.528763 1.528754
											CHANNELS 6 Xposition Yposition Zposition Xrotation Yrotation Zrotation
											JOINT mixamorig:LeftHandThumb4
											{
												OFFSET 1.998924 -1.154083 1.154080
												CHANNELS 6 Xposition Yposition Zposition Xrotation Yrotation Zrotation
												End Site
												{
													OFFSET 1.884041 -1.149155 1.337651
												}
											}
										}
									}
								}
								JOINT mixamorig:LeftHandIndex1
								{
									OFFSET 9.109299 -0.518005 2.259900
									CHANNELS 6 Xposition Yposition Zposition Xrotation Yrotation Zrotation
									JOINT mixamorig:LeftHandIndex2
									{
										OFFSET 3.699997 0.000000 0.000000
										CHANNELS 3 Xrotation Yrotation Zrotation
										JOINT mixamorig:LeftHandIndex3
										{
											OFFSET 2.850006 0.000000 0.000000
											CHANNELS 3 Xrotation Yrotation Zrotation
											JOINT mixamorig:LeftHandIndex4
											{
												OFFSET 2.774895 0.000000 0.000000
												CHANNELS 3 Xrotation Yrotation Zrotation
												End Site
												{
													OFFSET 2.774902 0.000000 -0.000072
												}
											}
										}
									}
								}
								JOINT mixamorig:LeftHandMiddle1
								{
									OFFSET 9.533401 0.000000 0.000000
									CHANNELS 6 Xposition Yposition Zposition Xrotation Yrotation Zrotation
									JOINT mixamorig:LeftHandMiddle2
									{
										OFFSET 3.699997 0.000000 0.000000
										CHANNELS 3 Xrotation Yrotation Zrotation
										JOINT mixamorig:LeftHandMiddle3
										{
											OFFSET 2.949997 0.000000 0.000000
											CHANNELS 3 Xrotation Yrotation Zrotation
											JOINT mixamorig:LeftHandMiddle4
											{
												OFFSET 2.952896 0.000000 0.000000
												CHANNELS 3 Xrotation Yrotation Zrotation
												End Site
												{
													OFFSET 2.952904 0.000000 0.000165
												}
											}
										}
									}
								}
								JOINT mixamorig:LeftHandRing1
								{
									OFFSET 9.104500 -0.042999 -1.865101
									CHANNELS 6 Xposition Yposition Zposition Xrotation Yrotation Zrotation
									JOINT mixamorig:LeftHandRing2
									{
										OFFSET 3.149994 0.000000 0.000000
										CHANNELS 3 Xrotation Yrotation Zrotation
										JOINT mixamorig:LeftHandRing3
										{
											OFFSET 2.950005 0.000000 0.000000
											CHANNELS 3 Xrotation Yrotation Zrotation
											JOINT mixamorig:LeftHandRing4
											{
												OFFSET 2.644302 0.000000 0.000000
												CHANNELS 3 Xrotation Yrotation Zrotation
												End Site
												{
													OFFSET 2.644302 0.000000 0.000083
												}
											}
										}
									}
								}
								JOINT mixamorig:LeftHandPinky1
								{
									OFFSET 8.077805 -0.486893 -3.806302
									CHANNELS 6 Xposition Yposition Zposition Xrotation Yrotation Zrotation
									JOINT mixamorig:LeftHandPinky2
									{
										OFFSET 3.600006 0.000000 0.000000
										CHANNELS 3 Xrotation Yrotation Zrotation
										JOINT mixamorig:LeftHandPinky3
										{
											OFFSET 2.099998 0.000000 0.000000
											CHANNELS 3 Xrotation Yrotation Zrotation
											JOINT mixamorig:LeftHandPinky4
											{
												OFFSET 2.125496 0.000000 0.000000
												CHANNELS 3 Xrotation Yrotation Zrotation
												End Site
												{
													OFFSET 2.125504 0.000000 -0.001254
												}
											}
										}
									}
								}
							}
						}
					}
				}
			}
		}
	}
	JOINT mixamorig:RightUpLeg
	{
		OFFSET -8.207800 -6.751701 -1.599544
		CHANNELS 6 Xposition Yposition Zposition Xrotation Yrotation Zrotation
		JOINT mixamorig:RightLeg
		{
			OFFSET 0.000004 -44.370152 0.345934
			CHANNELS 3 Xrotation Yrotation Zrotation
			JOINT mixamorig:RightFoot
			{
				OFFSET 0.000004 -44.423664 -3.043535
				CHANNELS 3 Xrotation Yrotation Zrotation
				JOINT mixamorig:RightToeBase
				{
					OFFSET 0.000001 -8.728691 10.710592
					CHANNELS 3 Xrotation Yrotation Zrotation
					JOINT mixamorig:RightToe_End
					{
						OFFSET 0.000000 -0.000665 9.278101
						CHANNELS 3 Xrotation Yrotation Zrotation
						End Site
						{
							OFFSET 0.000000 -0.000665 9.278103
						}
					}
				}
			}
		}
	}
	JOINT mixamorig:LeftUpLeg
	{
		OFFSET 8.207800 -6.751701 -1.599544
		CHANNELS 6 Xposition Yposition Zposition Xrotation Yrotation Zrotation
		JOINT mixamorig:LeftLeg
		{
			OFFSET 0.000004 -44.370037 0.346940
			CHANNELS 3 Xrotation Yrotation Zrotation
			JOINT mixamorig:LeftFoot
			{
				OFFSET 0.000004 -44.423611 -3.044388
				CHANNELS 3 Xrotation Yrotation Zrotation
				JOINT mixamorig:LeftToeBase
				{
					OFFSET 0.000001 -8.728690 10.710592
					CHANNELS 3 Xrotation Yrotation Zrotation
					JOINT mixamorig:LeftToe_End
					{
						OFFSET 0.000000 -0.000680 9.278101
						CHANNELS 3 Xrotation Yrotation Zrotation
						End Site
						{
							OFFSET 0.000000 -0.000680 9.278101
						}
					}
				}
			}
		}
	}
}
MOTION
Frames: 4
Frame Time: 0.033333
0.644573 102.378014 -0.989671 -0.100909 10.484568 7.697045 0.000001 10.181562 0.131525 1.463252 0.634493 1.373306 1.378816 -0.089107 -0.914593 1.379413 -0.094988 -0.913028 0.000000 16.740356 -2.049021 6.876336 2.250087 -2.072813 -0.000003 9.617820 1.684976 1.732946 15.072783 -9.355249 -0.000000 22.037369 7.501078 -0.000002 -0.000002 0.000001 -4.569996 11.014869 -2.160840 0.655759 -0.684966 11.539246 12.993579 43.417371 53.884950 -0.000012 5.503176 -0.000002 -8.710957 8.185113 -12.055333 -2.464798 -1.573981 2.681910 5.334742 -5.177899 2.551700 13.293734 -25.537529 -15.354357 -2.646272 -1.527834 1.527814 -16.912923 3.681543 -11.021334 -1.994583 -1.151586 1.151570 0.000003 -0.000000 -0.000000 -9.108296 -0.517878 2.259803 0.149233 0.666240 14.302273 2.066582 -3.871466 56.173467 0.650892 -2.376583 30.628901 0.000001 0.000002 -0.000002 -9.532500 0.000007 -0.000002 -0.100242 -2.848477 22.471273 1.975126 -3.808734 54.807794 1.145989 -3.061460 41.036798 0.000000 0.000005 -0.000000 -9.103601 -0.043101 -1.865105 0.344430 -4.134313 33.585034 2.214085 -3.966109 58.331509 1.116707 -3.027555 40.485458 -0.000001 -0.000004 0.000000 -8.076715 -0.486717 -3.806299 1.238795 -5.663339 37.805729 1.974729 -3.808459 54.802074 1.045496 -2.942196 39.117836 0.000000 0.000001 -0.000001 4.570400 11.014694 -2.160815 0.603733 0.581649 -10.108128 -23.930060 4.590197 -52.691252 -0.000072 -76.152839 -0.000052 28.068562 -39.914608 21.121988 2.466102 -1.576217 2.681695 -1.539032 -0.791147 3.868134 11.858752 25.420533 17.057713 2.647888 -1.528752 1.528752 -16.378104 -6.127291 6.384324 1.998913 -1.154071 1.154093 0.000001 0.000004 0.000001 9.109317 -0.518026 2.259897 1.410107 2.122278 -41.023994 2.744701 4.960929 -57.888865 0.358360 2.019403 -20.124961 0.000001 0.000001 -0.000000 9.533399 -0.000017 -0.000003 1.252065 6.062527 -49.147832 2.746508 4.962076 -57.909677 0.812432 2.978371 -30.511196 -0.000001 0.000001 -0.000000 9.104512 -0.043016 -1.865107 1.934070 6.706360 -54.649634 3.056766 5.142890 -61.431616 0.784197 2.929993 -29.963432 -0.000001 0.000001 -0.000000 8.077809 -0.486920 -3.806306 3.261463 7.948361 -60.909291 2.747685 4.962798 -57.923399 0.715110 2.806889 -28.582709 0.000001 -0.000001 0.000000 -8.207800 -6.751709 -1.599543 -14.536990 -10.934553 -10.477698 25.334061 -9.957322 -1.772271 -12.352057 -1.280961 3.787680 -0.031714 -0.000005 -0.000003 -0.000000 0.000000 0.000000 8.207800 -6.751687 -1.599544 -11.084697 4.044959 -2.325331 14.696030 3.344832 0.145414 -1.287734 0.242488 -6.615389 -0.430120 -0.000002 -0.000003 0.000000 0.000002 0.000000 
1.128774 102.452301 -0.586355 -0.090367 9.603850 7.557691 0.000001 10.181553 0.131522 1.025539 0.573003 0.959052 1.334501 -0.102042 -0.991497 1.335052 -0.106469 -0.990187 -0.000000 16.740335 -2.049019 6.944110 1.280131 -1.984696 0.000000 9.617866 1.684970 1.480301 8.899861 -7.472330 0.000001 22.037369 7.501075 -0.000000 0.000000 -0.000000 -4.570001 11.014857 -2.160837 0.664408 -0.742110 11.746866 12.295403 44.160035 54.461736 0.000002 5.337417 0.000006 -9.007297 8.314318 -12.134005 -2.464792 -1.573980 2.681906 5.316105 -5.165436 2.532192 13.292291 -25.549009 -15.356318 -2.646251 -1.527814 1.527812 -16.909006 3.662280 -11.026078 -1.994583 -1.151585 1.151572 -0.000003 -0.000003 -0.000003 -9.108303 -0.517881 2.259799 0.148805 0.667817 14.282333 1.758186 -3.646425 51.471817 0.648390 -2.372365 30.568583 0.000001 -0.000002 -0.000000 -9.532509 -0.000006 -0.000003 -0.100475 -2.846745 22.451308 1.643253 -3.552064 49.641067 1.142765 -3.057754 40.976415 -0.000001 0.000001 -0.000000 -9.103582 -0.043102 -1.865101 0.313731 -4.060050 32.605728 1.866950 -3.730271 53.162583 1.113517 -3.023803 40.425065 -0.000002 0.000002 0.000000 -8.076710 -0.486708 -3.806299 1.190522 -5.600357 36.828544 1.642878 -3.551747 49.635360 1.042398 -2.938378 39.057453 -0.000000 0.000001 0.000001 4.570398 11.014656 -2.160812 0.612813 0.739908 -10.341433 -23.108478 5.448164 -52.427733 0.000027 -74.575858 0.000041 28.932517 -41.587284 24.812901 2.466091 -1.576193 2.681705 -1.539244 -0.791820 3.867897 11.859638 25.414936 17.056616 2.647886 -1.528761 1.528754 -16.378748 -6.129489 6.383671 1.998918 -1.154063 1.154088 -0.000002 0.000003 -0.000004 9.109291 -0.518007 2.259902 1.408192 2.108263 -41.001356 2.743424 4.960140 -57.874160 0.358303 2.019297 -20.123858 0.000001 0.000002 -0.000000 9.533391 0.000007 -0.000002 1.255520 6.066490 -49.186941 2.748444 4.963278 -57.932032 0.812642 2.978719 -30.515243 0.000001 -0.000001 0.000000 9.104504 -0.043010 -1.865098 1.937747 6.708476 -54.619428 3.056724 5.142857 -61.431220 0.784119 2.929840 -29.961755 0.000001 -0.000001 0.000000 8.077808 -0.486899 -3.806299 3.273961 7.972561 -60.843325 2.746758 4.962217 -57.912593 0.715710 2.807992 -28.595118 -0.000000 0.000002 0.000000 -8.207800 -6.751722 -1.599541 -14.079964 -10.980446 -10.610065 24.820446 -9.566154 -1.737219 -12.252303 -0.751146 4.011132 -0.034860 0.000002 0.000001 -0.000000 -0.000000 -0.000000 8.207800 -6.751709 -1.599545 -10.622857 4.505191 -2.357643 14.757513 3.757681 0.165563 -1.756068 0.255998 -6.461079 -0.427378 0.000005 0.000001 0.000000 -0.000002 -0.000000 
1.617901 102.519218 -0.182870 -0.030662 8.581739 7.346353 -0.000001 10.181549 0.131526 0.634927 0.581575 0.620113 1.331331 -0.117620 -1.126474 1.332060 -0.120904 -1.125234 0.000002 16.740376 -2.049021 7.014795 0.367887 -1.859865 0.000000 9.617847 1.684975 1.076175 3.029846 -5.352418 0.000000 22.037369 7.501076 -0.000001 0.000000 0.000000 -4.569995 11.014873 -2.160840 0.668285 -0.759304 11.843598 11.405303 44.999226 55.369714 0.000005 5.418351 0.000014 -9.259822 8.440404 -12.150881 -2.464792 -1.573994 2.681905 5.297248 -5.152802 2.512469 13.290812 -25.560658 -15.358304 -2.646278 -1.527796 1.527811 -16.905032 3.642781 -11.030867 -1.994587 -1.151584 1.151573 0.000002 -0.000005 0.000001 -9.108278 -0.517883 2.259805 0.148423 0.669412 14.262144 1.465992 -3.393744 46.715711 0.645875 -2.368098 30.507549 0.000001 -0.000001 -0.000000 -9.532480 0.000015 -0.000001 -0.100686 -2.845004 22.431139 1.332373 -3.262961 44.414825 1.139512 -3.054011 40.915295 -0.000000 0.000002 0.000000 -9.103606 -0.043113 -1.865104 0.284089 -3.984602 31.614681 1.538808 -3.460772 47.934008 1.110302 -3.020039 40.363939 0.000001 -0.000001 0.000001 -8.076699 -0.486709 -3.806302 1.142792 -5.535772 35.839693 1.332071 -3.262654 44.409122 1.039255 -2.934516 38.996354 0.000000 -0.000000 0.000000 4.570400 11.014696 -2.160815 0.623088 0.910757 -10.587280 -21.818952 6.558068 -52.220413 -0.000042 -73.124524 -0.000023 30.112856 -43.053117 28.052646 2.466104 -1.576191 2.681705 -1.540261 -0.795139 3.866801 11.859931 25.413042 17.056253 2.647883 -1.528764 1.528762 -16.381913 -6.140344 6.380412 1.998918 -1.154050 1.154087 -0.000005 0.000005 -0.000004 9.109292 -0.518022 2.259899 1.409276 2.105496 -41.019326 2.744836 4.961020 -57.890341 0.358506 2.019822 -20.129280 0.000002 0.000000 0.000000 9.533385 -0.000015 -0.000000 1.256175 6.067337 -49.198273 2.749644 4.964023 -57.946095 0.812896 2.979164 -30.520123 0.000000 0.000000 -0.000000 9.104487 -0.043019 -1.865096 1.935530 6.708114 -54.695554 3.059359 5.144287 -61.460501 0.784628 2.930751 -29.971959 0.000000 -0.000002 0.000000 8.077819 -0.486913 -3.806304 3.290335 8.001821 -60.787618 2.747156 4.962472 -57.917231 0.716655 2.809712 -28.614294 0.000002 -0.000003 0.000001 -8.207801 -6.751705 -1.599542 -13.670314 -11.048517 -10.672101 24.275872 -8.684050 -1.700347 -12.124391 -0.544594 4.118760 -0.034776 0.000000 0.000002 -0.000000 -0.000000 0.000000 8.207799 -6.751686 -1.599542 -10.243468 5.079473 -2.310905 14.916425 4.188073 0.186867 -2.279143 0.274378 -6.318500 -0.427827 0.000002 -0.000001 0.000000 0.000001 -0.000000 
2.106175 102.576561 0.215435 0.108939 7.385396 7.032313 0.000001 10.181561 0.131524 0.290269 0.701809 0.325959 1.373563 -0.120171 -1.239577 1.374728 -0.122388 -1.238133 -0.000000 16.740351 -2.049023 7.065893 -0.496917 -1.702430 0.000001 9.617815 1.684977 0.559167 -2.490578 -3.326065 -0.000000 22.037384 7.501075 -0.000000 -0.000000 0.000000 -4.570001 11.014859 -2.160840 0.669004 -0.729650 11.881749 10.547695 45.805933 56.323540 -0.000001 5.825002 0.000007 -9.443606 8.597314 -11.959620 -2.464818 -1.573999 2.681906 5.279039 -5.140619 2.493440 13.289391 -25.571851 -15.360209 -2.646274 -1.527804 1.527812 -16.901207 3.623967 -11.035483 -1.994591 -1.151581 1.151572 0.000004 -0.000003 0.000003 -9.108309 -0.517881 2.259799 0.148047 0.670947 14.242630 1.205136 -3.128029 42.132404 0.643434 -2.363955 30.448666 -0.000001 -0.000001 0.000001 -9.532514 0.000014 -0.000002 -0.100899 -2.843290 22.411633 1.058904 -2.958606 39.378667 1.136371 -3.050386 40.856361 0.000001 -0.000002 0.000000 -9.103609 -0.043103 -1.865103 0.256865 -3.911585 30.659210 1.247092 -3.173727 42.895627 1.107195 -3.016378 40.305011 0.000001 -0.000005 0.000001 -8.076710 -0.486719 -3.806298 1.097845 -5.472718 34.886369 1.058628 -2.958245 39.372987 1.036254 -2.930811 38.937450 0.000001 0.000000 -0.000000 4.570400 11.014668 -2.160815 0.633311 1.075464 -10.812122 -19.993931 7.797539 -52.167103 -0.000041 -71.801708 -0.000031 31.443035 -43.240206 30.164783 2.466091 -1.576192 2.681707 -1.539285 -0.791973 3.867858 11.859718 25.414430 17.056552 2.647895 -1.528751 1.528754 -16.378917 -6.130056 6.383486 1.998917 -1.154080 1.154082 -0.000004 0.000001 -0.000000 9.109291 -0.518005 2.259905 1.408122 2.106995 -41.000533 2.743395 4.960127 -57.873757 0.358315 2.019310 -20.123979 0.000002 0.000000 0.000003 9.533401 -0.000003 0.000004 1.252889 6.063462 -49.157206 2.747106 4.962444 -57.916692 0.812524 2.978527 -30.512975 -0.000000 0.000000 0.000000 9.104506 -0.042997 -1.865098 1.931338 6.705104 -54.692245 3.057724 5.143399 -61.442346 0.784432 2.930398 -29.967940 0.000000 -0.000002 -0.000000 8.077816 -0.486891 -3.806296 3.284923 7.994311 -60.780289 2.745652 4.961527 -57.899964 0.716233 2.808943 -28.605522 -0.000000 -0.000002 -0.000001 -8.207799 -6.751708 -1.599544 -13.341948 -11.141183 -10.631319 23.691433 -7.387710 -1.662657 -11.951357 -0.564674 4.128085 -0.035095 -0.000002 0.000001 -0.000000 0.000000 0.000000 8.207802 -6.751678 -1.599544 -10.004992 5.733818 -2.154214 15.209706 4.668706 0.212087 -2.872418 0.321097 -6.198596 -0.431175 -0.000002 -0.000001 -0.000000 0.000001 -0.000000 
